<svg width="27" height="30" viewBox="0 0 27 30" fill="none" xmlns="http://www.w3.org/2000/svg">
<path d="M8.4375 18.6667C8.4375 17.5621 9.33293 16.6667 10.4375 16.6667H16.5625C17.6671 16.6667 18.5625 17.5621 18.5625 18.6667V26.6667H23.625V11.6667L13.5 4.16667L3.375 11.6667V26.6667H8.4375V18.6667ZM2 30C0.895431 30 0 29.1046 0 28V11.0075C0 10.3737 0.300326 9.77754 0.809545 9.40034L12.3095 0.881819C13.0167 0.357972 13.9833 0.357971 14.6905 0.881819L26.1905 9.40034C26.6997 9.77754 27 10.3737 27 11.0075V28C27 29.1046 26.1046 30 25 30H2Z" fill="#6D503A"/>
</svg>
